# xmcd
#
# Track frame offsets:
#	150
#	16459
#	29654
#	45667
#	63750
#	76705
#	91578
#	110465
#	121300
#	140834
#	151962
#	163306
#	175889
#	194585
#	207164
#	218243
#	234489
#	251120
#	267571
#	285742
#	300292
#
# Disc length: 4153 seconds
# Revision: 0
# Processed by: cddbd v1.5.2PL0 Copyright (c) Steve Scherf et al.
# Submitted via: dBpowerAMP V12.0
#
DISCID=2a103715
DTITLE=Various Artist - Kross Kut Records Vol 6
DYEAR=2013
DGENRE=Country
TTITLE0=Glenn Jones - Every Day's Australia Day For Me
TTITLE1=Jamie Davis - Jim Sowell
TTITLE2=Graham Hugo - Grandfather Johnson
TTITLE3=Lex K - Namitjira's Land
TTITLE4=Ken' Chainsaw' Lindsey -  Big Fella Wadumbah
TTITLE5=Lloyd Back - Alone With You
TTITLE6=Clancey - A Walk In The Rain
TTITLE7=Peter Silata - Bits And Pieces
TTITLE8=Don Allen - Another Angel In Heaven
TTITLE9=Dakota Ellis - Mates
TTITLE10=Karen Whylie - This Time
TTITLE11=Barry Glasby - Footprints In The Sand
TTITLE12=Renee McAlpin - You Were Meant For Me
TTITLE13=Tyson Allen - Summetime Blues
TTITLE14=Shane Johnson - My Old Akubra
TTITLE15=Pat Brown - Those Mountains Of Mine
TTITLE16=Heath Watts - Golden Years
TTITLE17=Bob Ellison and Michelle Walker - Was It All Worthwhile
TTITLE18=Tony Shepherd - Dancing With You
TTITLE19=Shelley Minson - The Dance at the Wybong Hall
TTITLE20=Waddo And Lawrie - The Ghost of 2TM
EXTD=
EXTT0=
EXTT1=
EXTT2=
EXTT3=
EXTT4=
EXTT5=
EXTT6=
EXTT7=
EXTT8=
EXTT9=
EXTT10=
EXTT11=
EXTT12=
EXTT13=
EXTT14=
EXTT15=
EXTT16=
EXTT17=
EXTT18=
EXTT19=
EXTT20=
PLAYORDER=
